<svg width="307" height="45" viewBox="0 0 307 45" fill="none" xmlns="http://www.w3.org/2000/svg">
<path d="M18.6328 25.2656C18.6328 29.3281 18.0234 32.2109 16.8047 33.9141C15.5859 35.6016 13.9922 36.4453 12.0234 36.4453C9.77344 36.4453 7.96875 35.3047 6.60938 33.0234V36H0.304688V0.234375H6.60938V12.5156C7.96875 10.2188 9.77344 9.07031 12.0234 9.07031C13.9922 9.07031 15.5859 9.92187 16.8047 11.625C18.0234 13.3281 18.6328 16.2188 18.6328 20.2969V25.2656ZM12.3516 24.375V21.1641C12.3516 18.6953 12.1016 16.9688 11.6016 15.9844C11.1172 15 10.4141 14.5078 9.49219 14.5078C8.08594 14.5078 7.125 15.5078 6.60938 17.5078V28.0547C7.14062 30.0547 8.10156 31.0547 9.49219 31.0547C10.4141 31.0547 11.1172 30.5547 11.6016 29.5547C12.1016 28.5547 12.3516 26.8281 12.3516 24.375ZM42.1406 25.2422C42.1406 29.2891 41.2891 32.1719 39.5859 33.8906C37.8984 35.5938 35.7031 36.4453 33 36.4453C30.2969 36.4453 28.0938 35.5938 26.3906 33.8906C24.6875 32.1719 23.8359 29.2891 23.8359 25.2422V20.2266C23.8359 16.1641 24.6875 13.2734 26.3906 11.5547C28.0938 9.83594 30.2969 8.97656 33 8.97656C35.7031 8.97656 37.8984 9.83594 39.5859 11.5547C41.2891 13.2734 42.1406 16.1641 42.1406 20.2266V25.2422ZM35.8594 25.3125V20.2969C35.8594 17.8906 35.6328 16.3047 35.1797 15.5391C34.7266 14.7578 34 14.3672 33 14.3672C32 14.3672 31.2656 14.7578 30.7969 15.5391C30.3438 16.3047 30.1172 17.8906 30.1172 20.2969V25.3125C30.1172 27.5938 30.3438 29.125 30.7969 29.9062C31.2656 30.6719 32 31.0547 33 31.0547C34 31.0547 34.7266 30.6719 35.1797 29.9062C35.6328 29.125 35.8594 27.5938 35.8594 25.3125ZM68.0859 13.9453L62.1094 16.6641C61.5312 15.2266 60.7188 14.5078 59.6719 14.5078C57.4375 14.5078 56.3203 16.3672 56.3203 20.0859V36H50.0156V9.46875H56.3203V12.5156C57.7422 10.1562 59.625 8.97656 61.9688 8.97656C64.4688 8.97656 66.5078 10.6328 68.0859 13.9453ZM90.9375 13.9922H89.5547L88.5 13.7578C88.9531 14.6172 89.1797 15.6484 89.1797 16.8516C89.1797 18.8984 88.4297 20.6016 86.9297 21.9609C85.4453 23.3203 83.3438 24 80.625 24C80.0469 24 79.4531 23.9922 78.8438 23.9766C78 24.8203 77.5781 25.625 77.5781 26.3906C77.5781 26.9531 77.8281 27.3672 78.3281 27.6328C78.8281 27.8984 79.5469 28.0312 80.4844 28.0312H82.2188C85.2188 28.0312 87.4609 28.7734 88.9453 30.2578C90.4297 31.7422 91.1719 33.6328 91.1719 35.9297C91.1719 38.4922 90.1875 40.5547 88.2188 42.1172C86.2656 43.6953 83.6016 44.4844 80.2266 44.4844C76.9922 44.4844 74.6172 43.7188 73.1016 42.1875C71.5859 40.6562 70.8281 38.8984 70.8281 36.9141C70.8281 34.4922 72.1016 32.5547 74.6484 31.1016C72.8203 30.1016 71.9062 28.7344 71.9062 27C71.9062 25.4062 72.9688 23.9766 75.0938 22.7109C72.9219 21.4297 71.8359 19.4141 71.8359 16.6641C71.8359 14.3359 72.6094 12.4922 74.1562 11.1328C75.7031 9.77344 77.8672 9.09375 80.6484 9.09375C81.3047 9.09375 82.0781 9.16406 82.9688 9.30469C84.1406 9.41406 86.7969 9.46875 90.9375 9.46875V13.9922ZM83.1328 16.4062C83.1328 15.2969 82.8984 14.4844 82.4297 13.9688C81.9766 13.4531 81.3516 13.1953 80.5547 13.1953C79.7422 13.1953 79.0938 13.4531 78.6094 13.9688C78.1406 14.4844 77.9062 15.3203 77.9062 16.4766C77.9062 17.7578 78.1406 18.6484 78.6094 19.1484C79.0938 19.6484 79.7344 19.8984 80.5312 19.8984C81.3594 19.8984 82 19.6484 82.4531 19.1484C82.9062 18.6484 83.1328 17.7344 83.1328 16.4062ZM84.8672 36.1641C84.8672 35.1484 84.5938 34.3672 84.0469 33.8203C83.5 33.2578 82.7109 32.9766 81.6797 32.9766H80.625C79.5312 32.9766 78.6719 33.2812 78.0469 33.8906C77.4219 34.5 77.1094 35.3281 77.1094 36.375C77.1094 37.2969 77.3828 38.0625 77.9297 38.6719C78.4766 39.2812 79.3828 39.5859 80.6484 39.5859C83.4609 39.5859 84.8672 38.4453 84.8672 36.1641ZM110.273 13.4062C110.273 15.0781 109.766 16.3828 108.75 17.3203C107.75 18.2422 106.492 18.7031 104.977 18.7031C103.461 18.7031 102.203 18.2422 101.203 17.3203C100.203 16.3828 99.7031 15.0781 99.7031 13.4062C99.7031 11.75 100.195 10.4609 101.18 9.53906C102.18 8.60156 103.445 8.13281 104.977 8.13281C106.492 8.13281 107.75 8.60156 108.75 9.53906C109.766 10.4766 110.273 11.7656 110.273 13.4062ZM110.273 31.1719C110.273 32.8438 109.766 34.1406 108.75 35.0625C107.75 35.9844 106.492 36.4453 104.977 36.4453C103.461 36.4453 102.203 35.9844 101.203 35.0625C100.203 34.1406 99.7031 32.8438 99.7031 31.1719C99.7031 29.5156 100.195 28.2266 101.18 27.3047C102.18 26.3672 103.445 25.8984 104.977 25.8984C106.492 25.8984 107.75 26.3672 108.75 27.3047C109.766 28.2422 110.273 29.5312 110.273 31.1719ZM139.688 0.234375L124.242 36H118.312L133.758 0.234375H139.688ZM163.688 0.234375L148.242 36H142.312L157.758 0.234375H163.688ZM177.463 32.8887C177.463 33.8027 177.129 34.6055 176.461 35.2969C175.805 35.9883 174.979 36.334 173.982 36.334C172.975 36.334 172.148 35.9883 171.504 35.2969C170.871 34.6055 170.555 33.8027 170.555 32.8887C170.555 31.9863 170.871 31.1836 171.504 30.4805C172.148 29.7773 172.975 29.4258 173.982 29.4258C174.979 29.4258 175.805 29.7832 176.461 30.498C177.129 31.2012 177.463 31.998 177.463 32.8887ZM192.07 33.6973C193.312 33.6973 194.25 33.4043 194.883 32.8184C195.527 32.2207 195.85 31.5 195.85 30.6562C195.85 29.4961 195.141 28.5938 193.723 27.9492L189.891 26.1914C187.512 25.0664 186.322 23.4609 186.322 21.375C186.322 19.7461 186.908 18.3984 188.08 17.332C189.252 16.2656 190.764 15.7324 192.615 15.7324C195.275 15.7324 197.314 16.957 198.732 19.4062L196.289 20.8828C195.551 19.2188 194.326 18.3867 192.615 18.3867C191.596 18.3867 190.787 18.6445 190.189 19.1602C189.604 19.6758 189.311 20.3145 189.311 21.0762C189.311 22.0957 189.973 22.9219 191.297 23.5547L194.918 25.2422C197.531 26.4492 198.838 28.3008 198.838 30.7969C198.838 32.2734 198.229 33.5684 197.01 34.6816C195.791 35.7832 194.133 36.334 192.035 36.334C189.105 36.334 186.814 34.9805 185.162 32.2734L187.623 30.7793C188.596 32.7246 190.078 33.6973 192.07 33.6973ZM217.646 33.2227C216.252 35.2969 214.389 36.334 212.057 36.334C210.51 36.334 209.209 35.8125 208.154 34.7695C207.111 33.7148 206.59 32.1621 206.59 30.1113V18.6504H203.25V16.1016H206.59V9.17578H209.578V16.1016H216.293V18.6504H209.578V30.3047C209.578 31.3945 209.812 32.2207 210.281 32.7832C210.75 33.3457 211.4 33.627 212.232 33.627C213.615 33.627 214.664 32.9414 215.379 31.5703L217.646 33.2227ZM234.715 27.3867C234.715 30.4336 234.088 32.6895 232.834 34.1543C231.58 35.6074 229.969 36.334 228 36.334C226.031 36.334 224.42 35.6074 223.166 34.1543C221.924 32.6895 221.303 30.4336 221.303 27.3867V24.6797C221.303 21.6328 221.924 19.3828 223.166 17.9297C224.42 16.4648 226.031 15.7324 228 15.7324C229.969 15.7324 231.58 16.4648 232.834 17.9297C234.088 19.3828 234.715 21.6328 234.715 24.6797V27.3867ZM231.727 27.3867V24.6797C231.727 22.3242 231.375 20.6953 230.672 19.793C229.98 18.8906 229.09 18.4395 228 18.4395C226.91 18.4395 226.02 18.8906 225.328 19.793C224.637 20.6953 224.291 22.3242 224.291 24.6797V27.3867C224.291 29.7422 224.637 31.3711 225.328 32.2734C226.02 33.1758 226.91 33.627 228 33.627C229.09 33.627 229.98 33.1758 230.672 32.2734C231.375 31.3711 231.727 29.7422 231.727 27.3867ZM253.717 19.459L251.115 20.6191C250.529 19.166 249.539 18.4395 248.145 18.4395C245.215 18.4395 243.75 21.1641 243.75 26.6133V36H240.762V16.1016H243.75V19.2832C244.934 16.916 246.557 15.7324 248.619 15.7324C251.01 15.7324 252.709 16.9746 253.717 19.459ZM270.012 36H267.023V33.75C265.758 35.4727 264.158 36.334 262.225 36.334C260.596 36.334 259.277 35.7773 258.27 34.6641C257.273 33.5508 256.775 32.1504 256.775 30.4629C256.775 28.7285 257.402 27.2754 258.656 26.1035C259.91 24.9316 261.75 24.3457 264.176 24.3457H267.023V22.2012C267.023 19.6934 265.834 18.4395 263.455 18.4395C261.697 18.4395 260.385 19.2129 259.518 20.7598L257.25 19.0723C258.82 16.8457 260.895 15.7324 263.473 15.7324C265.383 15.7324 266.947 16.2773 268.166 17.3672C269.396 18.457 270.012 20.0684 270.012 22.2012V36ZM267.023 31.3242V26.7539H264.176C262.746 26.7539 261.668 27.0879 260.941 27.7559C260.215 28.4238 259.852 29.3262 259.852 30.4629C259.852 32.5723 260.889 33.627 262.963 33.627C264.592 33.627 265.945 32.8594 267.023 31.3242ZM289.77 18.4746H288.732L287.115 18.3164C288.006 19.4062 288.451 20.5137 288.451 21.6387C288.451 23.1738 287.895 24.4512 286.781 25.4707C285.668 26.4902 284.145 27 282.211 27C281.496 27 280.84 27 280.242 27C279.293 27.6211 278.818 28.2188 278.818 28.793C278.818 29.3906 279.006 29.8359 279.381 30.1289C279.756 30.4102 280.377 30.5508 281.244 30.5508H282.896C285.381 30.5508 287.174 31.0781 288.275 32.1328C289.389 33.1875 289.945 34.5176 289.945 36.123C289.945 37.9277 289.236 39.416 287.818 40.5879C286.412 41.7715 284.555 42.3633 282.246 42.3633C279.832 42.3633 277.998 41.8184 276.744 40.7285C275.49 39.6387 274.863 38.3145 274.863 36.7559C274.863 34.7285 275.889 33.1934 277.939 32.1504C276.428 31.5176 275.672 30.5508 275.672 29.25C275.672 27.9375 276.475 26.8242 278.08 25.9102C276.439 24.8086 275.619 23.2793 275.619 21.3223C275.619 19.6934 276.199 18.3691 277.359 17.3496C278.52 16.3301 280.143 15.8203 282.229 15.8203C282.838 15.8203 284.32 15.9141 286.676 16.1016H289.77V18.4746ZM285.568 21.3047C285.568 20.5078 285.275 19.8105 284.689 19.2129C284.104 18.6035 283.225 18.2988 282.053 18.2988C280.857 18.2988 279.967 18.5859 279.381 19.1602C278.807 19.7227 278.52 20.4551 278.52 21.3574C278.52 22.3887 278.824 23.1738 279.434 23.7129C280.043 24.252 280.898 24.5215 282 24.5215C283.195 24.5215 284.086 24.2461 284.672 23.6953C285.27 23.1328 285.568 22.3359 285.568 21.3047ZM286.869 36.123C286.869 35.2441 286.576 34.5469 285.99 34.0312C285.416 33.5156 284.385 33.2578 282.896 33.2578H281.701C280.342 33.2578 279.375 33.5684 278.801 34.1895C278.227 34.7988 277.939 35.584 277.939 36.5449C277.939 37.541 278.314 38.3086 279.064 38.8477C279.814 39.3984 280.805 39.6738 282.035 39.6738C285.258 39.6738 286.869 38.4902 286.869 36.123ZM306.697 26.6484H296.273V27.2461C296.273 29.8125 296.648 31.5176 297.398 32.3613C298.16 33.2051 299.18 33.627 300.457 33.627C302.098 33.627 303.404 32.8008 304.377 31.1484L306.803 32.6953C305.279 35.1211 303.1 36.334 300.264 36.334C298.236 36.334 296.566 35.6074 295.254 34.1543C293.941 32.7012 293.285 30.3984 293.285 27.2461V24.8379C293.285 21.6855 293.941 19.3828 295.254 17.9297C296.566 16.4648 298.148 15.7324 300 15.7324C301.969 15.7324 303.574 16.4062 304.816 17.7539C306.07 19.1016 306.697 21.293 306.697 24.3281V26.6484ZM303.709 24.0117C303.709 21.9844 303.357 20.5488 302.654 19.7051C301.963 18.8613 301.078 18.4395 300 18.4395C298.969 18.4395 298.09 18.8613 297.363 19.7051C296.637 20.5488 296.273 21.9844 296.273 24.0117H303.709Z" fill="black"/>
</svg>
